<svg width="78" height="25" viewBox="0 0 78 25" fill="none" xmlns="http://www.w3.org/2000/svg">
<path d="M5.89235 19.9592H16.4322V23.9201H0.45459V20.2949L10.9273 4.45153H0.45459V0.490693H16.4322V4.11587L5.89235 19.9592Z" fill="#265542"/>
<path d="M28.7904 24.155C26.5974 24.155 24.5834 23.6403 22.7485 22.611C20.9135 21.5816 19.459 20.1606 18.3848 18.348C17.3107 16.5131 16.7736 14.4431 16.7736 12.1382C16.7736 9.85573 17.3107 7.80818 18.3848 5.99559C19.459 4.16062 20.9135 2.72845 22.7485 1.69908C24.5834 0.669714 26.5974 0.155029 28.7904 0.155029C31.0058 0.155029 33.0198 0.669714 34.8324 1.69908C36.6674 2.72845 38.1107 4.16062 39.1625 5.99559C40.2366 7.80818 40.7737 9.85573 40.7737 12.1382C40.7737 14.4431 40.2366 16.5131 39.1625 18.348C38.1107 20.1606 36.6674 21.5816 34.8324 22.611C32.9974 23.6403 30.9834 24.155 28.7904 24.155ZM28.7904 19.9592C30.2002 19.9592 31.4422 19.6459 32.5163 19.0194C33.5904 18.3704 34.4296 17.4529 35.0338 16.2669C35.638 15.0809 35.9401 13.7047 35.9401 12.1382C35.9401 10.5718 35.638 9.20678 35.0338 8.04314C34.4296 6.85713 33.5904 5.95083 32.5163 5.32426C31.4422 4.69769 30.2002 4.3844 28.7904 4.3844C27.3806 4.3844 26.1275 4.69769 25.031 5.32426C23.9569 5.95083 23.1177 6.85713 22.5135 8.04314C21.9093 9.20678 21.6072 10.5718 21.6072 12.1382C21.6072 13.7047 21.9093 15.0809 22.5135 16.2669C23.1177 17.4529 23.9569 18.3704 25.031 19.0194C26.1275 19.6459 27.3806 19.9592 28.7904 19.9592Z" fill="#265542"/>
<path d="M46.4516 20.1942H54.1719V23.9201H41.7523V0.490693H46.4516V20.1942Z" fill="#265542"/>
<path d="M65.5168 24.155C63.3238 24.155 61.3098 23.6403 59.4749 22.611C57.6399 21.5816 56.1854 20.1606 55.1112 18.348C54.0371 16.5131 53.5 14.4431 53.5 12.1382C53.5 9.85573 54.0371 7.80818 55.1112 5.99559C56.1854 4.16062 57.6399 2.72845 59.4749 1.69908C61.3098 0.669714 63.3238 0.155029 65.5168 0.155029C67.7322 0.155029 69.7462 0.669714 71.5588 1.69908C73.3938 2.72845 74.8371 4.16062 75.8889 5.99559C76.963 7.80818 77.5 9.85573 77.5 12.1382C77.5 14.4431 76.963 16.5131 75.8889 18.348C74.8371 20.1606 73.3938 21.5816 71.5588 22.611C69.7238 23.6403 67.7098 24.155 65.5168 24.155ZM65.5168 19.9592C66.9266 19.9592 68.1686 19.6459 69.2427 19.0194C70.3168 18.3704 71.156 17.4529 71.7602 16.2669C72.3644 15.0809 72.6665 13.7047 72.6665 12.1382C72.6665 10.5718 72.3644 9.20678 71.7602 8.04314C71.156 6.85713 70.3168 5.95083 69.2427 5.32426C68.1686 4.69769 66.9266 4.3844 65.5168 4.3844C64.107 4.3844 62.8539 4.69769 61.7574 5.32426C60.6833 5.95083 59.8441 6.85713 59.2399 8.04314C58.6357 9.20678 58.3336 10.5718 58.3336 12.1382C58.3336 13.7047 58.6357 15.0809 59.2399 16.2669C59.8441 17.4529 60.6833 18.3704 61.7574 19.0194C62.8539 19.6459 64.107 19.9592 65.5168 19.9592Z" fill="#265542"/>
</svg>
